<svg height="480pt" viewBox="0 0 480 480.00067" width="480pt" xmlns="http://www.w3.org/2000/svg" fill="#ef6f2e"><path d="m240 0c-114.386719-.269531-212.953125 80.480469-235.199219 192.679688-2.910156 1.273437-4.79687475 4.144531-4.800781 7.320312v64c0 4.417969 3.582031 8 8 8h184c4.417969 0 8-3.582031 8-8v-24h16v41l-113.054688 15.074219c-3.976562.527343-6.945312 3.917969-6.945312 7.925781v24h-24c-2.570312.003906-4.984375 1.238281-6.484375 3.324219-1.503906 2.085937-1.910156 4.765625-1.097656 7.203125l7.582031 22.769531v86.703125c0 17.671875 14.328125 32 32 32s32-14.328125 32-32v-86.703125l7.585938-22.769531c.8125-2.4375.402343-5.117188-1.101563-7.203125-1.5-2.085938-3.914063-3.320313-6.484375-3.324219h-24v-17l113.054688-15.070312c3.976562-.53125 6.945312-3.917969 6.945312-7.929688v-56c0-4.417969-3.582031-8-8-8h-24v-24c-.03125-2.699219-1.449219-5.195312-3.75-6.605469 18.574219-17.503906 45.78125-22.277343 69.207031-12.144531s38.578125 33.226562 38.542969 58.75v88c0 17.671875 14.328125 32 32 32s32-14.328125 32-32v-22.078125c12.921875 8.648437 29.945312 8.003906 42.175781-1.601563 5.980469 16.410157 22.878907 26.160157 40.078125 23.125 17.203125-3.035156 29.742188-17.976562 29.746094-35.445312v-52c-.148438-132.484375-107.511719-239.847656-240-240zm-119.582031 357.472656c-.273438.816406-.414063 1.667969-.417969 2.527344v88c0 8.835938-7.164062 16-16 16s-16-7.164062-16-16v-88c0-.859375-.140625-1.710938-.414062-2.527344l-4.480469-13.472656h41.789062zm63.582031-101.472656h-168v-48h168zm280 36c0 11.046875-8.953125 20-20 20s-20-8.953125-20-20v-16c0-4.417969-3.582031-8-8-8s-8 3.582031-8 8c0 11.046875-8.953125 20-20 20s-20-8.953125-20-20c0-4.417969-3.582031-8-8-8s-8 3.582031-8 8v52c0 8.835938-7.164062 16-16 16s-16-7.164062-16-16v-88c.0625-34.410156-21.925781-64.992188-54.570312-75.890625-32.640626-10.894531-68.589844.34375-89.214844 27.890625h-37.34375c4.527344-9.699219 10.457031-18.679688 17.601562-26.65625 2.867188-3.296875 2.5625-8.285156-.691406-11.203125-3.25-2.921875-8.242188-2.691406-11.214844.515625-9.796875 10.996094-17.570312 23.640625-22.964844 37.34375h-50.863281c3.835938-13.570312 9.285157-26.632812 16.222657-38.910156 2.179687-3.84375.832031-8.730469-3.011719-10.910156-3.84375-2.179688-8.726563-.832032-10.910157 3.011718-8.296874 14.710938-14.628906 30.449219-18.832031 46.808594h-32.964843c24.578124-111.628906 129.261718-186.847656 242.902343-174.527344 113.636719 12.320313 199.769531 108.222656 199.855469 222.527344zm0 0"/><path d="m303.855469 129.066406c-41.132813-23.632812-91.953125-22.625-132.117188 2.621094-2.464843 1.503906-3.925781 4.21875-3.828125 7.101562.097656 2.882813 1.742188 5.488282 4.300782 6.820313 2.554687 1.335937 5.632812 1.1875 8.054687-.382813 35.144531-22.09375 79.613281-22.972656 115.605469-2.289062 3.832031 2.207031 8.726562.894531 10.9375-2.9375 2.207031-3.828125.894531-8.726562-2.9375-10.933594zm0 0"/><path d="m362.398438 202.503906c-6.605469-21.570312-18.796876-41.011718-35.335938-56.359375-3.242188-3.003906-8.304688-2.8125-11.308594.433594-3.007812 3.242187-2.8125 8.304687.429688 11.3125 14.46875 13.425781 25.128906 30.4375 30.90625 49.308594 1.046875 3.464843 1.941406 6.96875 2.65625 10.402343.757812 3.71875 4.027344 6.390626 7.820312 6.398438.539063.003906 1.078125-.054688 1.601563-.167969 4.328125-.886719 7.117187-5.113281 6.230469-9.4375-.78125-3.945312-1.804688-7.945312-3-11.890625zm0 0"/><path d="m414.527344 217.046875c1.007812 7.609375 1.515625 15.277344 1.519531 22.953125 0 4.417969 3.582031 8 8 8s8-3.582031 8-8c0-8.375-.554687-16.742188-1.65625-25.046875-.578125-4.382813-4.597656-7.464844-8.976563-6.882813-4.382812.578126-7.464843 4.597657-6.886718 8.976563zm0 0"/><path d="m281.746094 52.5625c-4.3125-.964844-8.589844 1.75-9.554688 6.0625-.960937 4.3125 1.753906 8.589844 6.066406 9.550781 55.40625 12.394531 101.460938 50.710938 123.71875 102.945313 1.722657 4.070312 6.417969 5.972656 10.488282 4.246094 4.070312-1.722657 5.96875-6.417969 4.246094-10.488282-24.277344-56.984375-74.515626-98.792968-134.964844-112.316406zm0 0"/><path d="m209.398438 66.664062c4.308593-.816406 7.152343-4.945312 6.386718-9.257812-.765625-4.316406-4.863281-7.210938-9.183594-6.492188-43.636718 7.746094-83.269531 30.308594-112.203124 63.878907-2.019532 2.144531-2.695313 5.230469-1.757813 8.023437.933594 2.792969 3.332031 4.847656 6.238281 5.34375 2.902344.5 5.847656-.640625 7.65625-2.96875 26.527344-30.765625 62.851563-51.441406 102.847656-58.542968zm0 0"/></svg>