<svg id="icons" enable-background="new 0 0 64 64" height="512" viewBox="0 0 64 64" width="512" xmlns="http://www.w3.org/2000/svg" fill="#ef6f2e"><path d="m1 56h62c.553 0 1-.447 1-1v-13.002-6.995c0-2.207-1.796-4.003-4.003-4.003h-11.184c-.416-1.158-1.513-1.993-2.813-1.993h-3.98c-.007 0-.013-.004-.02-.004-1.654 0-3-1.346-3-3v-11.003c0-3.859-3.141-7-7-7s-7 3.141-7 7v11.003c0 1.654-1.346 3-3 3-.007 0-.013.004-.02.004h-3.98c-1.3 0-2.397.835-2.813 1.993h-11.184c-.009 0-.017.005-.026.005-2.196.014-3.977 1.8-3.977 3.998v6.995 13.002c0 .553.447 1 1 1zm61-5h-60v-8.002h60zm-60 3v-1h60v1zm25-27.997v-11.003c0-2.757 2.243-5 5-5s5 2.243 5 5v11.003c0 2.743 2.223 4.975 4.961 4.996.014.001.025.008.039.008h4c.552 0 1 .448 1 1v4.996h-30v-4.996c0-.552.448-1 1-1h4c.014 0 .025-.007.039-.008 2.738-.021 4.961-2.253 4.961-4.996zm-23 7c.005 0 .01-.003.015-.003h10.985v5.003c0 .553.447 1 1 1h32c.553 0 1-.447 1-1v-5.003h10.997c1.105 0 2.003.898 2.003 2.003v5.995h-60v-5.995c0-1.103.897-2 2-2z"/><path d="m32 17.999c1.654 0 3-1.346 3-3s-1.346-3-3-3-3 1.346-3 3 1.346 3 3 3zm0-4c.552 0 1 .448 1 1s-.448 1-1 1-1-.448-1-1 .448-1 1-1z"/></svg>