<svg id="Capa_1" enable-background="new 0 0 511.021 511.021" height="512" viewBox="0 0 511.021 511.021" width="512" xmlns="http://www.w3.org/2000/svg" fill="#ef6f2e"><g><path d="m495.521 179.99h-11.672c-5.642-21.867-18.549-41.148-36.846-54.766-20.093-14.955-44.886-21.728-69.811-19.073-10.827 1.153-21.267 4.027-31.076 8.552-14.783-7.828-31.36-11.018-48.14-9.229-20.298 2.166-38.85 11.477-52.656 26.346-9.197-3.185-19.065-4.318-28.779-3.286-15.029 1.601-29.185 8.355-39.86 19.018-8.919 8.909-15.123 20.244-17.878 32.437h-11.353c-8.547 0-15.5 6.953-15.5 15.5v6.64h-12.983l-21.664-76.158c-1.14-4.082-4.9-6.932-9.143-6.932h-9.33v-5.013c0-6.341-5.159-11.5-11.5-11.5h-55.83c-6.341 0-11.5 5.159-11.5 11.5v27.234c0 6.341 5.159 11.5 11.5 11.5h55.83c6.341 0 11.5-5.159 11.5-11.5v-7.221h5.174l21.662 76.154c1.139 4.084 4.899 6.936 9.145 6.936h17.14v6.65c0 8.547 6.953 15.5 15.5 15.5h5.209l21.28 93.262c2.355 10.296 11.374 17.488 21.931 17.488h4.07v46.96c0 6.341 5.159 11.5 11.5 11.5h22.18c5.399 0 10.129-3.825 11.24-9.062l10.699-49.398h43.631c4.143 0 7.5-3.358 7.5-7.5s-3.357-7.5-7.5-7.5h-103.32c-3.518 0-6.523-2.398-7.308-5.829l-20.518-89.921h26.476c4.142 0 7.5-3.358 7.5-7.5s-3.358-7.5-7.5-7.5h-47.07c-.276 0-.5-.224-.5-.5v-28.29c0-.276.224-.5.5-.5h348.07c.275 0 .5.224.5.5v28.29c0 .276-.225.5-.5.5h-266c-4.142 0-7.5 3.358-7.5 7.5s3.358 7.5 7.5 7.5h232.598l-45.734 68.883c-5.118-1.71-10.585-2.65-16.27-2.65-20.535 0-38.293 12.087-46.553 29.517h-19.369c-4.143 0-7.5 3.358-7.5 7.5s3.357 7.5 7.5 7.5h14.919c-.311 2.282-.485 4.607-.485 6.974 0 28.392 23.098 51.49 51.489 51.49s51.49-23.098 51.49-51.49c0-17.321-8.606-32.661-21.758-41.999l50.277-75.725h15.398c8.547 0 15.5-6.953 15.5-15.5v-28.29c-.002-8.545-6.955-15.499-15.502-15.499zm-431.691-42.229h-48.83v-20.234h48.83zm166.969 255.729h-15.859v-43.46h25.272zm-12.669-250.039c8.536-.909 17.225.345 25.13 3.627 3.84 1.594 8.225.535 10.911-2.636 11.528-13.617 27.649-22.159 45.395-24.052 14.588-1.555 28.989 1.467 41.647 8.738 2.759 1.584 6.104 1.684 8.948.269 8.965-4.459 18.594-7.262 28.619-8.329 40.167-4.284 77.76 21.122 89.48 58.922h-294.001c5.755-19.732 22.79-34.293 43.871-36.539zm218.474 213.553c0 20.121-16.369 36.49-36.49 36.49-20.12 0-36.489-16.369-36.489-36.49s16.369-36.49 36.489-36.49c20.121 0 36.49 16.37 36.49 36.49z"/></g></svg>