<?xml version="1.0" encoding="utf-8"?>
<!-- Generator: Adobe Illustrator 25.0.1, SVG Export Plug-In . SVG Version: 6.00 Build 0)  -->
<svg version="1.1" id="Слой_1" xmlns="http://www.w3.org/2000/svg" xmlns:xlink="http://www.w3.org/1999/xlink" x="0px" y="0px"
	 viewBox="0 0 174 41" style="enable-background:new 0 0 174 41;" xml:space="preserve">
<style type="text/css">
	.st0{fill:#00AA9D;}
	.st1{fill:#E8122C;}
	.st2{fill:#0095CD;}
	.st3{fill:#9F9F9F;}
	.st4{fill:#4C4C4A;}
	.st5{fill:#6D6C6A;}
	.st6{fill:#C4C4C4;stroke:#FFFFFF;stroke-linejoin:round;stroke-miterlimit:10;}
	.st7{fill:#585856;stroke:#FFFFFF;stroke-linejoin:round;stroke-miterlimit:10;}
	.st8{fill:#757472;stroke:#FFFFFF;stroke-linejoin:round;stroke-miterlimit:10;}
	.st9{fill:#989697;stroke:#FFFFFF;stroke-linejoin:round;stroke-miterlimit:10;}
	.st10{fill:#989697;stroke:#FFFFFF;stroke-width:1.1077;stroke-linejoin:round;stroke-miterlimit:10;}
	.st11{fill:#81817F;stroke:#FFFFFF;stroke-linejoin:round;stroke-miterlimit:10;}
	.st12{fill:#ABABAB;stroke:#FFFFFF;stroke-linejoin:round;stroke-miterlimit:10;}
	.st13{fill:#565654;stroke:#FFFFFF;stroke-linejoin:round;stroke-miterlimit:10;}
	.st14{fill:#737270;stroke:#FFFFFF;stroke-linejoin:round;stroke-miterlimit:10;}
	.st15{display:none;fill:#BC6969;}
	.st16{fill:none;stroke:#313130;stroke-width:2.7;stroke-miterlimit:10;}
	.st17{fill:#313130;}
	.st18{fill:none;stroke:#313130;stroke-width:3.6;stroke-miterlimit:10;}
	.st19{fill-rule:evenodd;clip-rule:evenodd;fill:#313130;}
	.st20{fill:#141515;}
	.st21{fill:#FEFEFE;}
	.st22{fill:none;stroke:#313130;stroke-width:0.48;stroke-miterlimit:10;}
	.st23{fill:none;stroke:#313130;stroke-width:2.1;stroke-miterlimit:10;}
	.st24{fill-rule:evenodd;clip-rule:evenodd;fill:#FEFEFE;}
	.st25{fill-rule:evenodd;clip-rule:evenodd;fill:#4D4D4D;}
	.st26{fill:none;stroke:#DD2A1B;stroke-width:1.56;stroke-miterlimit:10;}
	.st27{fill:none;stroke:#313130;stroke-width:0.6;stroke-linecap:round;stroke-linejoin:bevel;stroke-miterlimit:10;}
	.st28{fill:#313130;stroke:#313130;stroke-width:0.6;stroke-linecap:round;stroke-linejoin:bevel;stroke-miterlimit:10;}
	.st29{fill:none;stroke:#313130;stroke-width:0.6;stroke-linejoin:round;stroke-miterlimit:10;}
	.st30{fill:none;stroke:#313130;stroke-width:1.56;stroke-linecap:round;stroke-linejoin:round;stroke-miterlimit:10;}
	.st31{fill-rule:evenodd;clip-rule:evenodd;fill:#2B2926;}
	.st32{fill:none;stroke:#1D1D1B;stroke-width:2;stroke-miterlimit:10;}
	.st33{fill-rule:evenodd;clip-rule:evenodd;fill:#1D1D1B;}
	.st34{fill:#878787;}
	.st35{fill:#FFFFFF;}
	.st36{fill:#FFFFFF;stroke:#FFFFFF;stroke-width:0.2804;stroke-linejoin:round;stroke-miterlimit:10;}
	.st37{fill:#FFFFFF;stroke:#FFFFFF;stroke-width:0.3106;stroke-linejoin:round;stroke-miterlimit:10;}
</style>
<rect class="st15" width="174" height="41"/>
<g>
	<g>
		<path class="st35" d="M50.39,36.78c0,0-11.74-21.54,4.16-30.54c2.23-1.26,4.78-1.88,7.34-1.88l4.92,0v5.77h-5.03
			c-2.49,0-4.85,1.11-6.42,3.04c-2.67,3.3-5.04,9.46,0.42,19.36C52.36,35.23,50.39,36.78,50.39,36.78z"/>
	</g>
	<g>
		<rect x="60.7" y="11.56" class="st35" width="6.11" height="21.71"/>
	</g>
	<g>
		<rect x="69.45" y="4.37" class="st35" width="6.11" height="28.91"/>
	</g>
	<g>
		<rect x="83.1" y="4.37" class="st35" width="6.11" height="28.91"/>
	</g>
	<g>
		
			<rect x="68.02" y="12.37" transform="matrix(0.5601 -0.8284 0.8284 0.5601 22.1041 72.4874)" class="st35" width="22.58" height="6.11"/>
	</g>
	<g>
		<rect x="98.23" y="10.48" class="st35" width="6.11" height="22.8"/>
	</g>
	<g>
		<rect x="136.92" y="4.37" class="st35" width="6.11" height="28.91"/>
	</g>
	<g>
		<rect x="91.85" y="4.37" class="st35" width="18.88" height="6.11"/>
	</g>
	<g>
		<polygon class="st35" points="147.53,21.97 142.1,19.15 149.88,4.22 156.94,4.37 		"/>
	</g>
	<g>
		<polygon class="st35" points="150.04,33.3 156.8,33.28 147.44,15.07 142.02,17.89 		"/>
	</g>
	<g>
		<g>
			<path class="st35" d="M122.92,10.54c1.38,0,3.21,0.22,4.11,1.26c0.96,1.1,1.3,3.41,0.92,6.17c-0.72,5.2-3.74,8.6-5.04,9.1
				c-1.33-0.48-4.37-3.84-5.01-9.01c-0.35-2.81,0.04-5.16,1.03-6.28C119.65,10.95,121,10.54,122.92,10.54 M122.92,4.37
				c-9.06,0-12.13,6.53-11.14,14.46c0.99,7.98,6.46,14.46,11.14,14.46c4.69,0,10.04-6.51,11.14-14.46
				C135.16,10.91,132.15,4.37,122.92,4.37L122.92,4.37z"/>
		</g>
	</g>
	<g>
		<path class="st35" d="M174,4.37h-9.57c0,0-6.66,0.37-7.11,8.73c-0.46,8.36,2.25,21.48,16.68,20.18c0-4.08,0-6.55,0-6.55
			s-9.81-0.97-10.06-8.08c-0.54-8.11,3.24-7.79,3.91-7.83c1.1,0,6.14,0,6.14,0V4.37z"/>
	</g>
</g>
<g>
	<g>
		<path class="st35" d="M15.39,5.19c0,0-15.49,0.79-15.39,10.19s13.36,18.46,21.77,17.02c-2.92-0.48-12.4-3.93-14.74-14.82
			c-0.16-0.76-0.21-1.55-0.14-2.32C7.47,8.61,12.34,7.06,15.39,5.19z"/>
		<path class="st35" d="M8.36,13.84c0,0,12.67-9.83,22.1-2.97c6.47,5.41,2.84,17.55,2.84,17.55s8.96-13.04,2.03-21.58
			c-0.64-0.79-1.43-1.46-2.35-1.9C26.63,1.89,13.57,4.5,8.36,13.84z"/>
		<path class="st35" d="M4.7,28.02c0,0,6.08,13.38,19.24,12.05c0.24-0.02,0.47-0.07,0.7-0.13c11.63-3.26,6.61-25.12,4.7-27.67
			c0.69,2.91,2.3,15.4-4.79,20.35c-0.03,0.02-0.06,0.04-0.09,0.06C16.55,37.46,7.24,30.85,4.7,28.02z"/>
		<path class="st35" d="M2.29,24.62c0,0-1.78,19.3,13.36,16c-1.37-0.88-1.66-1.15-2.07-1.34C8.36,39.6,2.75,33.43,2.99,25.35
			C2.61,24.96,2.29,24.62,2.29,24.62z"/>
		<path class="st35" d="M32.43,32.46c0,0,13.14-6.24,8.34-18.03c-0.38-0.52-1.01-1.13-1.51-1.67c-0.03,1.64,0,2.81-0.03,3.31
			c1.72,3.97,0.57,11.53-6.52,15.42C32.56,32.01,32.43,32.46,32.43,32.46z"/>
		<path class="st35" d="M23.28,2.98c0,0-11.74-8.74-18.57,3.7c1.35-0.72,2.78-1.08,3.13-1.33c1.87-4.66,8.68-5.72,14.55-2.13
			C22.87,3.09,23.28,2.98,23.28,2.98z"/>
	</g>
	<g>
		<polygon class="st36" points="14.67,17.6 11.57,19.34 10.24,16.45 12.68,14.01 		"/>
		<polygon class="st36" points="23.54,21.25 22.53,20.35 22.85,14.95 24.36,15.2 		"/>
		<polygon class="st36" points="22.4,22.89 20.28,23.34 20.03,10.44 22.85,14.95 		"/>
		<polygon class="st36" points="20.75,11.59 22.85,14.95 24.36,15.2 		"/>
		<polygon class="st36" points="20.3,24.42 18.33,20.2 17.65,14.5 20.03,10.44 		"/>
		<polygon class="st36" points="19.95,23.83 19.01,27.03 13.91,17.95 14.17,16.71 16.85,17.05 		"/>
		<polygon class="st36" points="16.85,17.05 14.17,16.71 12.68,14.01 15.48,14.26 		"/>
		<polygon class="st37" points="19.01,27.03 17.51,27.16 11.57,19.34 13.94,18.01 		"/>
		<polygon class="st36" points="18.69,27.4 18.35,27.81 16.01,25.02 16.53,24.54 		"/>
		<polygon class="st36" points="18.35,27.81 17.75,28.5 13.77,24.7 16.01,25.02 		"/>
		<polygon class="st36" points="17.75,28.5 16.93,28.75 14.03,26.6 13.77,24.7 		"/>
		<polygon class="st36" points="13.77,24.7 16.01,25.02 16.53,24.54 		"/>
		<g>
			<polygon class="st36" points="23.18,25.88 21.54,26.28 25.51,17.95 26.87,20.71 			"/>
			<polygon class="st36" points="23.6,25.29 24.6,25.29 28.5,20.07 26.87,20.71 			"/>
			<polygon class="st36" points="28.5,20.07 26.87,20.71 25.51,17.95 26.75,17.74 			"/>
		</g>
		<g>
			<polygon class="st36" points="19.3,26.09 19.91,27.35 21.66,21.28 21.02,20.07 			"/>
			<polygon class="st36" points="19.91,27.35 21.3,27.69 23.54,21.25 21.66,21.28 			"/>
			<polygon class="st36" points="23.11,19.12 21.02,20.07 21.66,21.28 			"/>
			<polygon class="st36" points="23.11,19.12 21.66,21.28 23.54,21.25 			"/>
		</g>
		<polygon class="st36" points="21.89,27.86 24.15,27.25 24.47,26.52 24.2,26.2 21.26,27.08 		"/>
		<polygon class="st36" points="24.15,27.25 24.47,26.52 25.4,26.2 25.15,26.98 		"/>
		<polygon class="st36" points="25.4,26.2 24.18,26.44 23.93,25.29 24.91,25.29 		"/>
		<polygon class="st36" points="21.26,27.08 24.14,26.21 23.93,25.29 21.18,26.61 		"/>
	</g>
</g>
</svg>
