<svg height="512" viewBox="0 0 60 60" width="512" xmlns="http://www.w3.org/2000/svg" fill="#ef6f2e"><g id="Page-1" fill="#ef6f2e" fill-rule="evenodd"><g id="004---Waterproof-Fabric"  fill="#ef6f2e" fill-rule="nonzero"><path id="Shape" d="m0 57c0 1.6568542 1.34314575 3 3 3h54c1.6568542 0 3-1.3431458 3-3s-1.3431458-3-3-3h-2.132l2.706-4.058c1.5104137-.3013189 2.5472744-1.6974466 2.3991821-3.2304865-.1480924-1.5330398-1.4330202-2.7048817-2.9731821-2.7115135h-6v-4h2c.3879065-.0001454.7407342-.2246105.9052432-.5759056.1645089-.3512952.111017-.7660368-.1372432-1.0640944l-5-6c-.1959066-.2177862-.4750662-.3421563-.768-.3421563s-.5720934.1243701-.768.3421563l-5 6c-.2482602.2980576-.3017521.7127992-.1372432 1.0640944.164509.3512951.5173367.5757602.9052432.5759056h2v4h-12v-4h2c.3879065-.0001454.7407342-.2246105.9052432-.5759056.1645089-.3512952.111017-.7660368-.1372432-1.0640944l-5-6c-.1959066-.2177862-.4750662-.3421563-.768-.3421563s-.5720934.1243701-.768.3421563l-5 6c-.2482602.2980576-.3017521.7127992-.1372432 1.0640944.164509.3512951.5173367.5757602.9052432.5759056h2v4h-12v-4h2c.3879065-.0001454.7407342-.2246105.9052432-.5759056.1645089-.3512952.111017-.7660368-.1372432-1.0640944l-5-6c-.1959066-.2177862-.4750662-.3421563-.768-.3421563s-.5720934.1243701-.768.3421563l-5 6c-.24826022.2980576-.30175214.7127992-.13724319 1.0640944.16450896.3512951.51733667.5757602.90524319.5759056h2v4h-6c-1.6568542.0000001-2.99999987 1.3431458-2.99999987 3s1.34314567 2.9999999 2.99999987 3h2.132l-2.706 4.058c-1.40807163.2744815-2.42476839 1.5074254-2.426 2.942zm58 0c0 .5522847-.4477153 1-1 1h-54c-.55228475 0-1-.4477153-1-1s.44771525-1 1-1h54c.5522847 0 1 .4477153 1 1zm-42.868-7-2.667 4h-2.6l2.667-4zm29.736 4 2.667-4h2.6l-2.667 4zm-2.4 0h-2.6l2.667-4h2.6zm-5 0h-2.6l2.667-4h2.6zm-5 0h-2.6l2.667-4h2.6zm-5 0h-2.6l2.667-4h2.6zm-5 0h-2.6l2.667-4h2.6zm-5 0h-2.6l2.667-4h2.6zm32.4 0 2.667-4h2.6l-2.667 4zm-3.868-16h-.865l2.865-3.438 2.865 3.438h-.865c-.5522847 0-1 .4477153-1 1v5h-2v-5c0-.5522847-.4477153-1-1-1zm-18 0h-.865l2.865-3.438 2.865 3.438h-.865c-.5522847 0-1 .4477153-1 1v5h-2v-5c0-.5522847-.4477153-1-1-1zm-18 0h-.865l2.865-3.438 2.865 3.438h-.865c-.5522847 0-1 .4477153-1 1v5h-2v-5c0-.5522847-.4477153-1-1-1zm-8 9c0-.5522847.44771525-1 1-1h54c.5522847 0 1 .4477153 1 1s-.4477153 1-1 1h-54c-.55228475 0-1-.4477153-1-1zm8.132 3-2.667 4h-2.6l2.667-4z"/><path id="Shape" d="m30 30c6.0721626-.0071635 10.9928365-4.9278374 11-11 0-9.338-9.909-18.364-10.331-18.743-.3803157-.3423168-.9576843-.3423168-1.338 0-.422.379-10.331 9.405-10.331 18.743.0071635 6.0721626 4.9278374 10.9928365 11 11zm0-27.615c2.191 2.168 9 9.483 9 16.615 0 4.9705627-4.0294373 9-9 9s-9-4.0294373-9-9c0-7.122 6.811-14.445 9-16.615z"/><path id="Shape" d="m30 26c.5522847 0 1-.4477153 1-1s-.4477153-1-1-1c-2.7600532-.0033061-4.9966939-2.2399468-5-5 0-.5522847-.4477153-1-1-1s-1 .4477153-1 1c.0044086 3.8641657 3.1358343 6.9955914 7 7z"/><path id="Shape" d="m8 30c4.4553907-.0450781 8.0338574-3.6875099 8-8.143 0-6.79-7.024-13.319-7.324-13.593-.38240162-.35079784-.96959838-.35079784-1.352 0-.3.274-7.324 6.803-7.324 13.593-.03385743 4.4554901 3.54460928 8.0979219 8 8.143zm0-19.592c1.7 1.755 6 6.673 6 11.449.0355687 3.3516258-2.6484661 6.09963-6 6.143-3.35153389-.04337-6.03556866-2.7913742-6-6.143 0-4.766 4.3-9.692 6-11.449z"/><path id="Shape" d="m8 26c.55228475 0 1-.4477153 1-1s-.44771525-1-1-1c-1.14300389-.0418004-2.03710914-.9998342-2-2.143 0-.5522847-.44771525-1-1-1s-1 .4477153-1 1c-.03678451 2.2475617 1.75253259 4.1008469 4 4.143z"/><path id="Shape" d="m52 30c4.4553907-.0450781 8.0338574-3.6875099 8-8.143 0-6.79-7.024-13.319-7.324-13.593-.3824016-.35079784-.9695984-.35079784-1.352 0-.3.274-7.324 6.8-7.324 13.593-.0338574 4.4554901 3.5446093 8.0979219 8 8.143zm0-19.592c1.7 1.755 6 6.673 6 11.449 0 3.3137085-2.6862915 6-6 6s-6-2.6862915-6-6c0-4.766 4.3-9.692 6-11.449z"/><path id="Shape" d="m52 26c.5522847 0 1-.4477153 1-1s-.4477153-1-1-1c-1.1430039-.0418004-2.0371091-.9998342-2-2.143 0-.5522847-.4477153-1-1-1s-1 .4477153-1 1c-.0367845 2.2475617 1.7525326 4.1008469 4 4.143z"/></g></g></svg>